<?xml version="1.0" encoding="iso-8859-1"?>
<!-- Generator: Adobe Illustrator 19.0.0, SVG Export Plug-In . SVG Version: 6.00 Build 0)  -->
<svg version="1.1" id="Layer_1" xmlns="http://www.w3.org/2000/svg" xmlns:xlink="http://www.w3.org/1999/xlink" x="0px" y="0px"
	 viewBox="0 0 502 502" style="enable-background:new 0 0 502 502;" xml:space="preserve">
<g>
	<path style="fill:#DB4949;" d="M283.211,130.093h-64.421c-23.028,0-41.696,18.668-41.696,41.696v85.552H202.8v141.072h96.4V257.341
		h25.707v-85.552C324.907,148.761,306.239,130.093,283.211,130.093z"/>
	<circle style="fill:#DB4949;" cx="251" cy="55.069" r="40.208"/>
	<g>
		<path d="M481.67,345.516c-12.891-16.204-30.965-27.839-50.894-32.762c-5.363-1.326-10.783,1.948-12.106,7.31
			c-1.324,5.362,1.948,10.782,7.31,12.106C458.964,340.318,482,369.688,482,403.592c0,40.554-32.993,73.547-73.547,73.547H93.547
			C52.993,477.139,20,444.146,20,403.592s32.993-73.547,73.547-73.547H192.8v68.368c0,5.522,4.478,10,10,10h96.4
			c5.522,0,10-4.478,10-10V267.342h15.706c5.522,0,10-4.478,10-10v-85.553c0-28.505-23.19-51.695-51.695-51.695h-64.422
			c-28.505,0-51.695,23.19-51.695,51.695v85.553c0,5.522,4.478,10,10,10H192.8v42.703H93.547C41.965,310.045,0,352.01,0,403.592
			s41.965,93.547,93.547,93.547h314.906c51.582,0,93.547-41.965,93.547-93.547C502,382.62,494.78,361.995,481.67,345.516z
			 M187.094,247.342v-75.553c0-17.477,14.219-31.695,31.695-31.695h64.422c17.477,0,31.695,14.219,31.695,31.695v75.553H299.2
			c-5.522,0-10,4.478-10,10v131.071H261V304.51c0-5.522-4.478-10-10-10s-10,4.478-10,10v83.903h-28.2V257.342
			c0-5.522-4.478-10-10-10H187.094z"/>
		<path d="M325.896,320.322c0,5.522,4.478,10,10,10h55.848c5.522,0,10-4.478,10-10s-4.478-10-10-10h-55.848
			C330.374,310.322,325.896,314.8,325.896,320.322z"/>
		<path d="M251,105.277c27.685,0,50.208-22.523,50.208-50.208S278.685,4.861,251,4.861s-50.208,22.523-50.208,50.208
			S223.315,105.277,251,105.277z M251,24.861c16.657,0,30.208,13.551,30.208,30.208S267.657,85.277,251,85.277
			s-30.208-13.551-30.208-30.208S234.343,24.861,251,24.861z"/>
	</g>
</g>
<g>
</g>
<g>
</g>
<g>
</g>
<g>
</g>
<g>
</g>
<g>
</g>
<g>
</g>
<g>
</g>
<g>
</g>
<g>
</g>
<g>
</g>
<g>
</g>
<g>
</g>
<g>
</g>
<g>
</g>
</svg>
